# AST/ASF file generated using VICON BodyLanguage
# -----------------------------------------------
:version 1.10
:name VICON
:units
  mass 1.0
  length 0.45
  angle deg
:documentation
   .ast/.asf automatically generated from VICON data using
   VICON BodyBuilder and BodyLanguage model FoxedUp or BRILLIANT.MOD
:root
   order TX TY TZ RX RY RZ
   axis XYZ
   position 0 0 0  
   orientation 0 0 0 
:bonedata
  begin
     id 1 
     name lhipjoint
     direction 0.588788 -0.725889 0.355548 
     length 2.37778 
     axis 0 0 0  XYZ
  end
  begin
     id 2 
     name lfemur
     direction 0.34202 -0.939693 0  
     length 6.86393  
     axis 0 0 20  XYZ
    dof rx ry rz
    limits (-160.0 20.0)
           (-70.0 70.0)
           (-60.0 70.0)
  end
  begin
     id 3 
     name ltibia
     direction 0.34202 -0.939693 0   
     length 7.32851   
     axis 0 0 20   XYZ
    dof rx
    limits (-10.0 170.0)
  end
  begin
     id 4 
     name lfoot
     direction 0.0626533 -0.172138 0.983078   
     length 1.98929   
     axis -90 7.62852e-016 20   XYZ
    dof rx rz
    limits (-45.0 90.0)
           (-70.0 20.0)
  end
  begin
     id 5 
     name ltoes
     direction 1.53647e-011 -4.21734e-011 1   
     length 1.00479   
     axis -90 7.62852e-016 20   XYZ
    dof rx
    limits (-90.0 20.0)
  end
  begin
     id 6 
     name rhipjoint
     direction -0.59141 -0.724168 0.354705   
     length 2.38343  
     axis 0 0 0  XYZ 
  end
  begin
     id 7 
     name rfemur
     direction -0.34202 -0.939693 0   
     length 6.95589   
     axis 0 0 -20   XYZ
    dof rx ry rz
    limits (-160.0 20.0)
           (-70.0 70.0)
           (-70.0 60.0)
  end
  begin
     id 8 
     name rtibia
     direction -0.34202 -0.939693 0   
     length 7.32327   
     axis 0 0 -20   XYZ
    dof rx
    limits (-10.0 170.0)
 end
 begin
     id 9 
     name rfoot
     direction -0.0660461 -0.18146 0.981178   
     length 1.85272  
     axis -90 -7.62852e-016 -20   XYZ
    dof rx rz
    limits (-45.0 90.0)
           (-20.0 70.0)
  end
  begin
     id 10 
     name rtoes
     direction -1.53586e-011 -4.21988e-011 1   
     length 0.93746   
     axis -90 -7.62852e-016 -20   XYZ
    dof rx
    limits (-90.0 20.0)
  end
  begin
     id 11 
     name lowerback
     direction -0.0107982 0.991059 0.13299   
     length 1.98691   
     axis 0 0 0   XYZ
    dof rx ry rz
    limits (-20.0 45.0)
           (-30.0 30.0)
           (-30.0 30.0)
  end
  begin
     id 12 
     name upperback
     direction 0.0076296 0.999916 0.0104576   
     length 1.99501   
     axis 0 0 0   XYZ
    dof rx ry rz
    limits (-20.0 45.0)
           (-30.0 30.0)
           (-30.0 30.0)
  end
  begin
     id 13 
     name thorax
     direction 0.01176 0.998615 -0.0512909   
     length 2.03144   
     axis 0 0 0   XYZ
    dof rx ry rz
    limits (-20.0 45.0)
           (-30.0 30.0)
           (-30.0 30.0)
  end
  begin
     id 14 
     name lowerneck
     direction -0.0171909 0.999644 0.0204011   
     length 1.71818   
     axis 0 0 0   XYZ
    dof rx ry rz
    limits (-20.0 45.0)
           (-30.0 30.0)
           (-30.0 30.0)
  end
  begin
     id 15 
     name upperneck
     direction 0.0250902 0.997482 -0.0663316   
     length 1.66199   
     axis 0 0 0   XYZ
    dof rx ry rz
    limits (-20.0 45.0)
           (-30.0 30.0)
           (-30.0 30.0)
  end
  begin
     id 16
     name head
     direction 0.00881535 0.99956 -0.0283365  
     length 1.81545  
     axis 0 0 0   XYZ
    dof rx ry rz
    limits (-20.0 45.0)
           (-30.0 30.0)
           (-30.0 30.0)
  end
  begin
     id 17 
     name lclavicle
     direction 0.840411 0.486876 -0.238035  
     length 3.30409  
     axis 0 0 0   XYZ
    dof ry rz
    limits (-20.0 10.0)
           (0.0 20.0)
  end
  begin
     id 18 
     name lhumerus
     direction 1 -4.48977e-011 -5.16239e-027   
     length 4.62672   
     axis 180 -30 -90   XYZ
    dof rx ry rz
    limits (-60.0 90.0)
           (-90.0 90.0)
           (-90.0 90.0)
  end
  begin
     id 19
     name lradius
     direction 1 -4.48977e-011 -8.71171e-027   
     length 3.11018   
     axis 180 -30 -90   XYZ
    dof rx
    limits (-10.0 170.0)
  end
  begin
     id 20
     name lwrist
     direction 1 -4.48912e-011 -1.03764e-026   
     length 1.55509   
     axis 9.09556e-015 90 90   XYZ
    dof ry
    limits (-180.0 0.0)
 end
  begin
     id 21 
     name lhand
     direction 1 -4.49072e-011 -2.07528e-026   
     length 0.743834   
     axis 1.3242e-014 90 90   XYZ
    dof rx rz
    limits (-90.0 90.0)
           (-45.0 45.0)
  end
  begin
     id 22 
     name lfingers
     direction 1 -4.48909e-011 -4.15056e-026   
     length 0.599698   
     axis 2.64841e-014 90 90   XYZ
    dof rx
    limits (0.0 90.0)
  end
  begin
     id 23
     name lthumb
     direction 0.707107 -6.35013e-011 0.707107   
     length 0.86105   
     axis -90 45 2.85299e-015   XYZ
    dof rx rz
    limits (-45.0 45.0)
           (-45.0 45.0)
  end
  begin
     id 24 
     name rclavicle
     direction -0.835208 0.500237 -0.228452   
     length 3.2716  
     axis 0 0 0   XYZ 
    dof ry rz
    limits (-10.0 20.0)
           (-20.0 0.0)
  end
  begin
     id 25 
     name rhumerus
     direction -1 -4.48978e-011 -5.1953e-028  
     length 4.55919   
     axis 180 30 90   XYZ
    dof rx ry rz
    limits (-90.0 60.0)
           (-90.0 90.0)
           (-90.0 90.0)
  end
  begin
     id 26 
     name rradius
     direction -1 -4.48961e-011 -5.99546e-027   
     length 3.22748   
     axis 180 30 90   XYZ
    dof rx
    limits (-10.0 170.0)
  end
  begin
     id 27 
     name rwrist
     direction -1 -4.48986e-011 -1.03764e-026   
     length 1.61374   
     axis 9.09556e-015 -90 -90   XYZ
    dof ry
    limits (-180.0 0.0)
  end
  begin
     id 28
     name rhand
     direction -1 -4.4899e-011 -2.07528e-026   
     length 0.700882   
     axis 1.3242e-014 -90 -90   XYZ
    dof rx rz
    limits (-90.0 90.0)
           (-45.0 45.0)
  end
  begin
     id 29
     name rfingers
     direction -1 -4.48991e-011 -4.15056e-026   
     length 0.565069   
     axis 2.64841e-014 -90 -90   XYZ
    dof rx
    limits (0.0 90.0)
  end
  begin
     id 30
     name rthumb
     direction -0.707107 -6.34804e-011 0.707107   
     length 0.811329   
     axis -90 -45 -2.85299e-015   XYZ
    dof rx rz
    limits (-45.0 45.0)
           (-45.0 45.0)
  end
:hierarchy
  begin
    root lhipjoint rhipjoint lowerback
    lhipjoint lfemur
    lfemur ltibia
    ltibia lfoot
    lfoot ltoes
    rhipjoint rfemur
    rfemur rtibia
    rtibia rfoot
    rfoot rtoes
    lowerback upperback
    upperback thorax
    thorax lowerneck lclavicle rclavicle
    lowerneck upperneck
    upperneck head
    lclavicle lhumerus
    lhumerus lradius
    lradius lwrist
    lwrist lhand lthumb
    lhand lfingers
    rclavicle rhumerus
    rhumerus rradius
    rradius rwrist
    rwrist rhand rthumb
    rhand rfingers
  end

#!OML:ASF F:\VICON\USERDATA\INSTALL\SteveWalk\SteveWalk.ASF
:FULLY-SPECIFIED
:DEGREES
320
root 0.295192 15.9796 29.0632 17.7326 9.27503 4.2549
lowerback -14.4163 -3.55487 -5.13221
upperback -4.91196 -3.9572 -0.146599
thorax 3.1963 -1.94306 2.05827
lowerneck -2.74968 -1.9389 -0.848546
upperneck 7.73252 -2.83729 3.71592
head 3.02893 -1.30699 1.25251
rclavicle -2.66162e-014 2.95319e-014
rhumerus -93.2424 -36.4654 -2.96491
rradius 10.0311
rwrist 58.1132
rhand -12.9042 -35.7042
rfingers 7.12502
rthumb 13.1856 -65.2673
lclavicle -2.66162e-014 2.95319e-014
lhumerus -10.1155 -11.2312 82.1059
lradius 50.6462
lwrist 12.1183
lhand -22.1571 -18.318
lfingers 7.12502
lthumb 4.2571 11.6192
rfemur -50.027 -7.5546 19.5068
rtibia 17.3743
rfoot -11.9899 2.06102
rtoes -13.1722
lfemur -3.26021 3.79869 -24.2383
ltibia 19.0896
lfoot -25.4588 -10.7688
ltoes -21.3137
321
root 0.292782 15.9533 29.3079 17.9648 9.45979 4.37625
lowerback -14.7175 -3.70534 -5.14811
upperback -4.97396 -4.13925 -0.0447859
thorax 3.31432 -2.03342 2.12605
lowerneck -2.9388 -1.87886 -0.696307
upperneck 7.75692 -2.74158 3.39213
head 3.06001 -1.26402 1.12217
rclavicle 1.78106e-014 2.04748e-014
rhumerus -94.4064 -36.1313 -0.669365
rradius 10.0609
rwrist 59.4408
rhand -12.9818 -35.8046
rfingers 7.12502
rthumb 13.1108 -65.3724
lclavicle 1.78106e-014 2.04748e-014
lhumerus -9.83087 -11.0358 81.9925
lradius 51.6616
lwrist 12.0756
lhand -22.3103 -18.0157
lfingers 7.12502
lthumb 4.10908 11.9244
rfemur -50.7029 -7.56351 19.3307
rtibia 17.5757
rfoot -13.1809 3.3253
rtoes -7.97738
lfemur -1.93386 3.2216 -24.1117
ltibia 18.077
lfoot -24.114 -11.1224
ltoes -19.4665
322
root 0.294253 15.9225 29.5502 18.1378 9.4823 4.52175
lowerback -14.7807 -3.7278 -5.03184
upperback -5.12656 -4.18464 -0.0518519
thorax 3.18225 -2.05109 2.04737
lowerneck -3.23282 -1.83453 -0.627374
upperneck 8.00846 -2.67938 3.19719
head 3.19483 -1.23267 1.04749
rclavicle 1.62242e-014 1.6201e-014
rhumerus -94.8365 -35.6848 0.151972
rradius 10.1396
rwrist 59.5951
rhand -13.1802 -35.7489
rfingers 7.12502
rthumb 12.9195 -65.329
lclavicle 1.62242e-014 1.6201e-014
lhumerus -9.7184 -11.1761 81.8369
lradius 52.5556
lwrist 12.3506
lhand -22.5575 -17.7068
lfingers 7.12502
lthumb 3.87039 12.2378
rfemur -51.0094 -7.44222 19.0827
rtibia 17.5119
rfoot -13.0326 4.12505
rtoes -6.75557
lfemur -0.758202 2.67635 -24.0747
ltibia 17.6649
lfoot -24.0691 -10.3999
ltoes -21.824
323
root 0.296076 15.8916 29.7927 18.0552 9.36087 4.48813
lowerback -14.9863 -3.69992 -4.86693
upperback -4.94903 -4.15998 0.0583826
thorax 3.47586 -2.04714 2.05739
lowerneck -3.55576 -1.75746 -0.675468
upperneck 7.95619 -2.55463 2.98202
head 3.23194 -1.17774 0.98832
rclavicle 3.1686e-014 1.20265e-014
rhumerus -96.5686 -35.642 3.54363
rradius 10.0727
rwrist 61.9086
rhand -13.6296 -35.3626
rfingers 7.12502
rthumb 12.4862 -64.9695
lclavicle 3.1686e-014 1.20265e-014
lhumerus -9.39903 -11.0509 81.7434
lradius 53.5385
lwrist 12.5141
lhand -22.6497 -17.3039
lfingers 7.12502
lthumb 3.78143 12.6422
rfemur -50.777 -6.64311 18.5839
rtibia 17.4776
rfoot -12.9792 3.6865
rtoes -7.76075
lfemur 0.188049 2.29119 -23.8794
ltibia 17.8676
lfoot -24.166 -10.6299
ltoes -20.972
324
root 0.296562 15.8578 30.0337 18.1207 9.51138 4.27857
lowerback -15.2028 -3.74636 -4.48223
upperback -4.93884 -4.2735 0.246341
thorax 3.59965 -2.10534 2.00535
lowerneck -3.62611 -1.70834 -0.643171
upperneck 7.91538 -2.4649 2.67539
head 3.22266 -1.14337 0.885378
rclavicle 2.45157e-014 2.26615e-014
rhumerus -98.1144 -35.406 6.6415
rradius 10.0596
rwrist 63.9976
rhand -13.8182 -35.0673
rfingers 7.12502
rthumb 12.3044 -64.6852
lclavicle 2.45157e-014 2.26615e-014
lhumerus -9.38439 -10.6418 81.7737
lradius 54.4607
lwrist 12.5491
lhand -22.5597 -17.6622
lfingers 7.12502
lthumb 3.86832 12.2825
rfemur -50.6027 -5.63633 18.0373
rtibia 17.7681
rfoot -13.2653 2.38673
rtoes -8.49862
lfemur 0.695203 1.59173 -23.4323
ltibia 18.4261
lfoot -23.8641 -9.22554
ltoes -28.2236
325
root 0.296295 15.8233 30.2661 18.432 9.85931 3.98626
lowerback -15.5084 -3.85663 -3.94677
upperback -5.05355 -4.49492 0.471875
thorax 3.63732 -2.2132 1.88646
lowerneck -3.55903 -1.64955 -0.684394
upperneck 7.77384 -2.36401 2.47833
head 3.15622 -1.1034 0.832425
rclavicle -2.28416e-014 1.61016e-014
rhumerus -99.9826 -35.0867 10.2999
rradius 10.1028
rwrist 66.601
rhand -14.1033 -34.6257
rfingers 7.12502
rthumb 12.0295 -64.26
lclavicle -2.28416e-014 1.61016e-014
lhumerus -9.52983 -10.2074 81.8024
lradius 55.3663
lwrist 12.6985
lhand -22.4806 -18.5182
lfingers 7.12502
lthumb 3.94466 11.425
rfemur -50.7935 -4.93445 17.8347
rtibia 18.5338
rfoot -14.5315 1.13054
rtoes -7.63865
lfemur 0.668734 0.593188 -22.8605
ltibia 19.0969
lfoot -22.627 -9.53157
ltoes -28.0102
326
root 0.297159 15.7847 30.5102 18.4934 9.71202 4.1361
lowerback -15.5287 -3.88818 -3.92111
upperback -5.14592 -4.54421 0.543349
thorax 3.55754 -2.23523 1.93981
lowerneck -3.37032 -1.53474 -0.807364
upperneck 7.61249 -2.19068 2.3764
head 3.06206 -1.02706 0.828162
rclavicle 2.77895e-014 -1.03368e-014
rhumerus -101.409 -34.8843 13.1813
rradius 10.2665
rwrist 68.5444
rhand -14.0317 -34.9748
rfingers 7.12502
rthumb 12.0986 -64.6051
lclavicle 2.77895e-014 -1.03368e-014
lhumerus -10.1099 -9.86638 81.8442
lradius 56.6351
lwrist 12.9129
lhand -22.6866 -18.5888
lfingers 7.12502
lthumb 3.74576 11.3581
rfemur -50.7879 -4.37643 17.4268
rtibia 19.7715
rfoot -17.5276 0.808752
rtoes 0.36826
lfemur 0.744062 -0.23013 -22.9416
ltibia 19.8734
lfoot -20.4794 -11.2404
ltoes -23.1151
327
root 0.306231 15.7487 30.7774 18.4752 9.4187 4.33331
lowerback -15.7526 -3.85966 -3.87216
upperback -5.18805 -4.50469 0.558122
thorax 3.62727 -2.21571 1.92403
lowerneck -3.476 -1.43345 -0.869964
upperneck 7.79201 -2.04412 2.2463
head 3.13956 -0.959046 0.80211
rclavicle 3.42966e-014 -6.75868e-015
rhumerus -102.997 -34.5394 16.4401
rradius 10.3456
rwrist 70.9344
rhand -14.1584 -35.0961
rfingers 7.12502
rthumb 11.9763 -64.7334
lclavicle 3.42966e-014 -6.75868e-015
lhumerus -10.9126 -9.69771 81.9133
lradius 57.9672
lwrist 13.4032
lhand -22.9255 -18.2895
lfingers 7.12502
lthumb 3.51502 11.6613
rfemur -50.8128 -4.20839 17.3548
rtibia 21.4648
rfoot -14.4569 0.238963
rtoes -12.4378
lfemur 1.15546 -0.867402 -23.178
ltibia 20.672
lfoot -19.1399 -11.6818
ltoes -23.389
328
root 0.31723 15.7301 31.0461 18.5007 9.47604 3.82643
lowerback -16.1486 -3.78622 -3.01775
upperback -5.21241 -4.53461 0.784186
thorax 3.77116 -2.23156 1.65527
lowerneck -3.85089 -1.36917 -0.930156
upperneck 8.04735 -1.93677 1.99356
head 3.29384 -0.913436 0.733156
rclavicle 1.08741e-014 1.98785e-015
rhumerus -102.484 -34.7043 15.9907
rradius 10.437
rwrist 70.2994
rhand -14.3499 -34.951
rfingers 7.12502
rthumb 11.7917 -64.5991
lclavicle 1.08741e-014 1.98785e-015
lhumerus -11.5737 -9.58031 82.0077
lradius 58.9664
lwrist 13.9779
lhand -22.9715 -18.4944
lfingers 7.12502
lthumb 3.47064 11.4571
rfemur -51.0915 -4.61335 18.6621
rtibia 23.4021
rfoot -12.4812 0.0187256
rtoes -21.5304
lfemur 1.55193 -1.37142 -22.5421
ltibia 21.4581
lfoot -18.8756 -11.0391
ltoes -28.6038
329
root 0.30627 15.7245 31.3037 18.5367 9.0456 3.48283
lowerback -16.1166 -3.63448 -2.67474
upperback -5.33873 -4.4023 1.02296
thorax 3.60803 -2.16354 1.74675
lowerneck -4.2148 -1.30144 -0.990566
upperneck 8.18015 -1.81169 1.63608
head 3.40318 -0.864737 0.630559
rclavicle 4.1296e-014 7.15625e-015
rhumerus -101.337 -34.9977 14.473
rradius 10.5021
rwrist 68.7894
rhand -14.5139 -34.7654
rfingers 7.12502
rthumb 11.6335 -64.4225
lclavicle 4.1296e-014 7.15625e-015
lhumerus -12.3454 -9.26769 82.1987
lradius 59.7908
lwrist 14.2876
lhand -23.1933 -18.8024
lfingers 7.12502
lthumb 3.25644 11.1525
rfemur -51.413 -4.21153 19.4252
rtibia 25.1982
rfoot -9.96815 -0.0333932
rtoes -29.2492
lfemur 1.68599 -1.52655 -22.1603
ltibia 22.4451
lfoot -17.4247 -11.4385
ltoes -29.2197
330
root 0.263377 15.7049 31.5573 18.8682 7.25173 4.02967
lowerback -16.2926 -3.38669 -3.91889
upperback -5.63934 -3.88015 1.04714
thorax 3.4312 -1.89531 2.57528
lowerneck -3.86819 -1.21719 -0.907946
upperneck 8.10954 -1.67385 1.25306
head 3.30376 -0.810398 0.498229
rclavicle -1.02964e-015 -1.19271e-014
rhumerus -100.122 -35.0768 12.9399
rradius 10.5318
rwrist 67.4148
rhand -14.4928 -34.9837
rfingers 7.12502
rthumb 11.6539 -64.6396
lclavicle -1.02964e-015 -1.19271e-014
lhumerus -13.5457 -8.83333 82.4097
lradius 60.5565
lwrist 14.5418
lhand -23.7003 -19.0815
lfingers 7.12502
lthumb 2.76676 10.8803
rfemur -52.1796 -1.65449 17.7811
rtibia 26.7092
rfoot -7.34718 0.110082
rtoes -31.2234
lfemur 1.25701 -1.12569 -23.145
ltibia 23.9178
lfoot -14.1885 -12.4542
ltoes -24.3283
331
root 0.289956 15.7071 31.8075 18.7659 7.15054 3.44502
lowerback -16.4835 -3.19253 -2.75608
upperback -5.56491 -3.8079 1.20049
thorax 3.54782 -1.86574 2.08573
lowerneck -4.12316 -1.1722 -0.870187
upperneck 8.19067 -1.59145 0.968847
head 3.37591 -0.778422 0.401088
rclavicle 1.15322e-014 -1.23246e-014
rhumerus -98.5387 -35.7159 10.5321
rradius 10.6075
rwrist 65.2774
rhand -14.3122 -35.3824
rfingers 7.12502
rthumb 11.8281 -65.0284
lclavicle 1.15322e-014 -1.23246e-014
lhumerus -14.4405 -8.17643 82.6579
lradius 61.4274
lwrist 14.6455
lhand -23.8471 -19.2733
lfingers 7.12502
lthumb 2.62499 10.6903
rfemur -52.316 -1.49171 18.2193
rtibia 28.0501
rfoot -6.19272 1.97263
rtoes -30.0933
lfemur 1.03752 -1.47238 -22.627
ltibia 25.8945
lfoot -11.3406 -13.2082
ltoes -21.1933
332
root 0.317885 15.7114 32.0695 18.5474 7.59353 2.46518
lowerback -16.3073 -3.10235 -1.0935
upperback -5.75037 -3.96584 1.49657
thorax 3.18301 -1.94615 1.44593
lowerneck -3.6188 -0.906354 -0.883638
upperneck 7.87406 -1.22292 0.818748
head 3.16472 -0.603326 0.371736
rclavicle 1.62786e-014 7.15625e-015
rhumerus -97.0695 -35.8295 8.53493
rradius 10.7114
rwrist 63.7256
rhand -14.3392 -35.3346
rfingers 7.12502
rthumb 11.802 -64.982
lclavicle 1.62786e-014 7.15625e-015
lhumerus -16.1528 -7.24449 83.0514
lradius 62.5576
lwrist 14.6761
lhand -23.6009 -19.0262
lfingers 7.12502
lthumb 2.8628 10.9344
rfemur -52.1028 -1.54415 19.1851
rtibia 29.3645
rfoot -5.43898 3.08451
rtoes -29.5851
lfemur 0.550071 -1.90057 -21.4847
ltibia 28.3423
lfoot -8.73924 -13.7921
ltoes -19.7905
333
root 0.33712 15.7137 32.3218 18.5498 7.56703 1.88284
lowerback -16.6044 -2.9931 -0.044231
upperback -5.61871 -3.99698 1.6841
thorax 3.42488 -1.96583 1.02886
lowerneck -4.01054 -0.819319 -0.79733
upperneck 7.82976 -1.082 0.484115
head 3.21943 -0.542564 0.25238
rclavicle 3.23305e-014 2.98177e-014
rhumerus -97.8406 -36.4768 10.2068
rradius 10.7314
rwrist 65.3223
rhand -14.3616 -34.7347
rfingers 7.12502
rthumb 11.7804 -64.3834
lclavicle 3.23305e-014 2.98177e-014
lhumerus -17.0527 -6.57497 83.264
lradius 63.1506
lwrist 15.1542
lhand -23.6485 -18.9359
lfingers 7.12502
lthumb 2.81683 11.0253
rfemur -52.0678 -1.30145 19.7118
rtibia 30.7216
rfoot -4.54654 3.50419
rtoes -29.0703
lfemur -0.548121 -1.88147 -20.8995
ltibia 31.1668
lfoot -4.88928 -14.4353
ltoes -15.2553
